<svg width="32" height="32" viewBox="0 0 32 32" fill="none" xmlns="http://www.w3.org/2000/svg">
<path d="M4.24174 0.646444C4.04647 0.451183 3.72989 0.451183 3.53463 0.646444L0.352648 3.82842C0.157386 4.02369 0.157386 4.34027 0.352648 4.53553C0.54791 4.7308 0.864493 4.7308 1.05976 4.53553L3.88818 1.70711L6.71661 4.53553C6.91187 4.73079 7.22845 4.73079 7.42372 4.53553C7.61898 4.34027 7.61898 4.02369 7.42372 3.82842L4.24174 0.646444ZM4.38818 31L4.38818 0.999998L3.38818 0.999998L3.38818 31L4.38818 31Z" fill="#7A7A7A"/>
<path d="M27.6464 31.3536C27.8416 31.5488 28.1582 31.5488 28.3535 31.3536L31.5355 28.1716C31.7307 27.9763 31.7307 27.6597 31.5355 27.4645C31.3402 27.2692 31.0236 27.2692 30.8284 27.4645L27.9999 30.2929L25.1715 27.4645C24.9762 27.2692 24.6597 27.2692 24.4644 27.4645C24.2691 27.6597 24.2691 27.9763 24.4644 28.1716L27.6464 31.3536ZM27.4999 1L27.4999 31H28.4999L28.4999 1L27.4999 1Z" fill="#7A7A7A"/>
</svg>
